<svg version="1.1" id="Layer_1" xmlns="http://www.w3.org/2000/svg" xmlns:xlink="http://www.w3.org/1999/xlink" x="0px" y="0px"
	 width="100%" viewBox="0 0 496 496" enable-background="new 0 0 496 496" xml:space="preserve">
<path fill="#000000" opacity="1.000000" stroke="none" 
	d="
M207.217834,247.393448 
	C207.260345,250.723511 209.612915,251.121979 211.614761,251.836502 
	C216.024002,253.410309 220.294357,255.266724 224.165451,257.931671 
	C237.866119,267.363617 238.599823,284.996796 225.450729,295.143524 
	C209.387344,307.539062 186.975143,305.500916 170.658691,293.051575 
	C168.145447,291.134003 167.887589,285.351990 169.692352,279.188904 
	C172.176636,279.548096 172.927414,281.820404 174.154099,283.390686 
	C181.055969,292.226044 189.482971,298.533936 200.855560,300.395294 
	C209.749283,301.850922 220.904419,297.005341 225.560196,289.403107 
	C229.571274,282.853577 228.935730,275.734192 223.833847,270.064789 
	C220.289719,266.126404 213.584320,262.423981 208.140686,261.518646 
	C207.331711,266.781830 210.278351,269.436310 214.835648,271.124756 
	C211.698929,272.582397 196.930893,272.931335 188.726791,271.547516 
	C195.603760,269.753967 196.796707,265.228241 197.487045,260.346954 
	C197.778900,258.283203 197.345566,256.747345 195.242630,255.934708 
	C188.590820,253.364273 181.949600,250.766174 175.990448,246.294479 
	C171.932007,252.488388 171.396103,259.640137 166.656265,266.574493 
	C154.516205,240.618637 142.810135,215.590637 131.104050,190.562637 
	C131.042435,211.103760 128.973434,231.539856 131.323883,251.899475 
	C132.611984,263.057068 134.387558,265.242035 144.827957,271.898621 
	C136.376907,271.898621 128.665039,271.898621 120.953156,271.898621 
	C127.214096,268.434357 127.690086,262.682892 127.691315,256.727692 
	C127.695541,236.228363 127.671684,215.729004 127.699806,195.229721 
	C127.708435,188.943298 127.570724,182.782059 118.963364,179.470139 
	C124.966690,178.210953 129.379944,178.688568 133.742554,178.792938 
	C136.217606,178.852158 136.700150,181.210007 137.535660,182.958527 
	C147.303543,203.400711 157.037201,223.859238 166.794556,244.306458 
	C167.787567,246.387390 168.875854,248.422882 170.156876,250.946198 
	C173.031815,247.103928 173.712433,244.275436 171.090073,240.035889 
	C164.701141,229.707016 169.907822,215.870865 182.132004,210.074005 
	C185.790466,208.339111 187.911606,206.044861 189.178772,202.348495 
	C191.391495,195.894028 194.070343,189.597076 196.207016,183.119720 
	C197.342499,179.677505 199.229828,178.374100 202.787888,178.605270 
	C206.647186,178.856018 210.535400,178.662125 214.673401,179.230789 
	C203.996475,184.991669 208.000916,194.747467 207.328674,203.057541 
	C207.150513,205.259933 208.979218,205.586227 210.719788,205.881165 
	C214.813141,206.574829 218.880447,207.423889 222.976456,208.099991 
	C227.571869,208.858536 230.225327,210.947296 229.384964,216.124969 
	C229.049149,218.193985 229.329727,220.363068 228.680542,222.942108 
	C222.914795,216.411179 217.675659,209.515137 207.198563,208.831085 
	C207.198563,221.801865 207.198563,234.383102 207.217834,247.393448 
M179.965164,233.991714 
	C179.201874,235.563828 179.582520,236.925461 180.827713,238.036072 
	C185.476273,242.182159 190.891861,244.691849 197.053925,246.117630 
	C197.053925,233.260178 197.053925,220.989746 197.053925,208.739502 
	C190.837418,208.757965 187.666763,211.478439 186.102295,216.889816 
	C184.491348,222.462006 182.188354,227.834106 179.965164,233.991714 
M197.683273,197.649216 
	C197.683273,194.414398 197.683273,191.179581 197.683273,187.944778 
	C195.151398,193.966095 192.013458,199.603729 190.688400,205.949951 
	C197.048477,206.643692 197.663727,205.947205 197.683273,197.649216 
M179.623566,218.314285 
	C177.083374,222.407791 175.027161,226.571594 177.759979,232.162079 
	C180.578537,226.080292 182.298401,220.337463 183.341873,214.153397 
	C182.244980,215.358917 181.148087,216.564453 179.623566,218.314285 
z"/>
<path fill="#000000" opacity="1.000000" stroke="none" 
	d="
M284.933563,225.343018 
	C282.252472,225.446335 281.043610,224.398422 280.976227,222.143372 
	C280.916656,220.149796 280.918121,218.154495 280.876556,216.160278 
	C280.814819,213.198990 281.345612,210.543335 285.156921,211.101517 
	C288.174988,211.543503 291.955505,211.619095 290.873779,216.568085 
	C290.738281,217.187912 290.726593,217.875381 290.833801,218.501328 
	C291.816223,224.237167 291.403534,224.768539 284.933563,225.343018 
z"/>
<path fill="#000000" opacity="1.000000" stroke="none" 
	d="
M410.799286,224.154968 
	C406.904327,226.584015 408.580811,221.339676 405.926300,221.525909 
	C405.286407,222.537735 404.438538,223.878464 402.811218,226.451691 
	C400.732635,221.033447 399.034607,216.607193 397.225647,211.891785 
	C400.366028,211.921326 400.366028,211.921326 403.444885,218.228668 
	C405.901489,216.420578 403.644592,213.900635 404.496216,211.535187 
	C408.603882,210.923523 407.408356,215.775467 409.967560,216.833221 
	C412.628723,216.383057 411.310120,212.124115 414.743256,211.704071 
	C414.539246,216.225647 412.470947,219.976898 410.799286,224.154968 
z"/>
<path fill="#000000" opacity="1.000000" stroke="none" 
	d="
M441.860199,221.308426 
	C439.206055,221.299301 441.398651,224.946381 437.728363,224.777191 
	C435.511200,221.491165 436.957458,217.217331 436.945984,213.223450 
	C436.941528,211.671661 438.385803,211.052032 439.800446,210.988770 
	C442.343964,210.875046 444.862549,211.122665 446.528992,213.382828 
	C448.442657,215.978256 445.443115,217.517120 444.982605,219.494431 
	C445.469360,221.565933 447.855042,222.485016 447.800659,224.984177 
	C444.037262,226.755203 443.755096,222.884338 441.860199,221.308426 
z"/>
<path fill="#000000" opacity="1.000000" stroke="none" 
	d="
M318.888153,222.825241 
	C319.480774,223.678131 320.679779,224.746399 319.580719,224.927475 
	C316.405121,225.450638 313.135834,225.412445 309.901733,225.560822 
	C309.597076,225.574799 309.230804,225.417068 308.978302,225.226334 
	C303.103088,220.788513 309.751617,217.369614 310.227539,213.496765 
	C310.571442,210.697754 313.590637,209.762161 316.350372,212.045517 
	C316.026947,214.257385 311.542236,214.618698 314.201141,217.790512 
	C315.954742,218.711426 317.358948,215.848724 319.464294,217.401199 
	C320.597382,219.121323 317.193604,220.610321 318.888153,222.825241 
z"/>
<path fill="#000000" opacity="1.000000" stroke="none" 
	d="
M259.849701,212.306122 
	C259.629547,217.204697 257.401337,221.130493 255.660858,225.234283 
	C253.132477,224.444778 253.554520,222.158768 252.101593,221.141800 
	C249.969742,221.510086 250.781403,224.451263 248.128693,225.258057 
	C246.136581,220.975143 244.169250,216.626358 243.325821,211.512802 
	C248.227905,211.529449 246.403442,216.660049 249.244980,217.708923 
	C252.001328,216.166794 248.664948,213.563690 250.591156,211.635910 
	C254.787994,211.862076 252.944504,216.885895 255.564102,218.315765 
	C257.833618,216.823914 256.420715,212.938568 259.849701,212.306122 
z"/>
<path fill="#000000" opacity="1.000000" stroke="none" 
	d="
M381.292725,244.876984 
	C382.251343,246.312927 383.780426,247.135971 383.187103,249.162659 
	C379.582001,250.474075 379.562653,245.998734 377.161102,245.315521 
	C375.376831,245.773392 376.629578,248.667740 374.433594,248.833755 
	C372.788483,246.927261 371.736755,237.697067 373.239075,236.159607 
	C375.340240,234.009262 377.916229,235.032867 380.216980,235.808044 
	C382.525635,236.585876 382.891052,238.514877 382.214325,240.678925 
	C381.808075,241.978088 379.904175,242.855865 381.292725,244.876984 
z"/>
<path fill="#000000" opacity="1.000000" stroke="none" 
	d="
M359.302429,225.430908 
	C354.606110,226.429779 351.710754,224.838989 350.781921,220.483841 
	C349.819183,215.969528 352.023865,212.201965 356.153137,211.171524 
	C360.059021,210.196823 363.037201,211.527451 364.535431,215.399597 
	C366.067261,219.358551 364.268066,222.937225 359.302429,225.430908 
M355.533997,222.695358 
	C359.563293,225.005798 360.623444,221.872803 361.377838,219.170731 
	C362.060181,216.726654 361.163300,214.033981 358.401367,213.781357 
	C354.782654,213.450348 354.338593,216.500137 354.337341,219.300873 
	C354.336945,220.249786 354.802887,221.198914 355.533997,222.695358 
z"/>
<path fill="#000000" opacity="1.000000" stroke="none" 
	d="
M336.888489,242.764725 
	C335.032684,248.332321 332.157166,250.394730 327.762573,249.516129 
	C324.047028,248.773270 322.641815,246.281631 322.682434,242.649384 
	C322.731049,238.305832 324.962555,235.817932 329.075043,235.021057 
	C333.349762,234.192764 335.980103,236.727707 336.888489,242.764725 
M328.108154,247.116684 
	C332.498199,248.261353 333.207397,245.057175 333.402618,242.124115 
	C333.559631,239.764557 332.363892,237.152908 329.432343,237.712753 
	C326.162872,238.337158 326.125458,241.364792 326.406036,244.056931 
	C326.500580,244.964264 327.142517,245.814560 328.108154,247.116684 
z"/>
<path fill="#000000" opacity="1.000000" stroke="none" 
	d="
M352.141907,239.860718 
	C351.729767,241.408951 351.126251,242.606552 349.969849,242.840317 
	C346.562744,243.529053 344.821106,245.494781 344.803772,249.421600 
	C340.422791,246.197601 342.312805,241.956543 342.080048,238.297302 
	C341.940918,236.110123 343.462097,234.878815 345.567261,234.982620 
	C348.590851,235.131683 351.688507,235.465057 352.141907,239.860718 
z"/>
<path fill="#000000" opacity="1.000000" stroke="none" 
	d="
M244.758545,237.377289 
	C248.094086,233.058502 251.554749,235.192261 254.442184,237.151123 
	C257.291290,239.084000 258.146362,242.255997 256.386536,245.556473 
	C253.752167,250.497116 249.379105,249.448181 244.696259,248.872726 
	C244.696259,245.047363 244.696259,241.430756 244.758545,237.377289 
M247.376160,244.075790 
	C247.432129,245.601089 247.428619,247.283325 249.467438,247.427353 
	C250.896164,247.528305 251.946335,246.569260 252.662445,245.373306 
	C253.867020,243.361588 254.129395,241.300415 252.581009,239.345505 
	C251.743500,238.288086 250.614441,237.203857 249.210983,237.700089 
	C246.367035,238.705612 247.681946,241.315033 247.376160,244.075790 
z"/>
<path fill="#000000" opacity="1.000000" stroke="none" 
	d="
M426.254150,212.284836 
	C428.229919,216.534958 430.975525,220.167389 431.397064,226.125473 
	C427.260010,223.501083 423.747253,219.824646 420.177216,225.220535 
	C419.468628,220.255600 422.700378,213.388916 426.254150,212.284836 
z"/>
<path fill="#000000" opacity="1.000000" stroke="none" 
	d="
M454.614990,211.829773 
	C457.535431,210.588409 460.045349,210.331879 462.501923,212.073242 
	C461.548798,214.257141 458.640778,212.639999 457.745667,215.820831 
	C457.524475,217.019867 460.255341,216.372711 460.735504,218.073441 
	C460.934692,220.106598 456.710114,219.545227 457.832184,222.363144 
	C458.711182,224.584793 461.478516,222.130142 462.466309,224.187042 
	C456.202728,227.066803 453.759186,225.783600 453.731537,219.499390 
	C453.720703,217.034454 453.147461,214.502884 454.614990,211.829773 
z"/>
<path fill="#000000" opacity="1.000000" stroke="none" 
	d="
M340.761169,215.998962 
	C343.531128,218.054459 346.951477,219.837402 344.595978,223.629852 
	C342.585510,226.866806 339.401367,226.106934 336.254578,224.659271 
	C337.594879,222.521713 340.224731,224.733093 341.348419,221.936325 
	C341.189880,218.586105 332.121796,217.540787 337.610596,211.929977 
	C339.589691,209.906906 342.084015,210.294785 343.984619,212.078522 
	C344.463928,215.204987 339.703003,212.507111 340.761169,215.998962 
z"/>
<path fill="#000000" opacity="1.000000" stroke="none" 
	d="
M272.858398,213.329132 
	C271.401093,213.628693 270.179993,213.696228 269.685272,215.029465 
	C269.411499,217.171600 272.273285,216.321915 272.526337,218.208115 
	C272.506897,220.044998 269.012604,219.594315 269.630402,222.214737 
	C270.398254,224.306168 273.223206,222.167236 274.170227,224.143860 
	C268.126190,227.115265 265.737091,225.764191 265.686249,219.334106 
	C265.671783,217.505814 265.704285,215.676712 265.742096,213.848526 
	C265.786346,211.706451 267.204590,210.872498 269.029938,210.955322 
	C270.766937,211.034149 273.073669,209.941940 273.894653,212.672623 
	C273.929199,212.787521 273.436096,213.061096 272.858398,213.329132 
z"/>
<path fill="#000000" opacity="1.000000" stroke="none" 
	d="
M299.637512,237.490356 
	C297.670685,239.797272 297.670685,239.797272 300.680817,242.150055 
	C300.369293,243.981171 297.011566,243.771774 297.776031,246.218658 
	C298.513611,248.579407 301.154114,246.747757 303.595703,248.921967 
	C299.844849,249.294449 297.147675,250.358368 294.650452,248.209229 
	C293.285095,247.034180 293.469574,237.208450 294.814392,236.136398 
	C297.302979,234.152557 299.930115,234.510818 302.539490,236.031494 
	C302.014008,237.546997 300.873779,237.230438 299.637512,237.490356 
z"/>
<path fill="#000000" opacity="1.000000" stroke="none" 
	d="
M265.918915,234.939041 
	C267.932373,235.020554 269.676117,234.622314 270.968201,236.181671 
	C270.269226,238.345825 267.314636,236.576813 266.874634,238.040924 
	C265.838165,241.109940 269.308228,240.357803 269.303345,242.317123 
	C268.587952,243.736862 265.707245,243.759476 266.455994,246.278961 
	C267.188019,248.742249 269.988586,246.440521 271.264862,248.608963 
	C268.222107,249.404846 265.062836,250.777985 262.904816,247.792923 
	C260.980530,245.131195 263.134430,236.520294 265.918915,234.939041 
z"/>
<path fill="#000000" opacity="1.000000" stroke="none" 
	d="
M277.414337,237.722733 
	C278.985687,235.051315 279.343231,234.982269 280.589233,237.000320 
	C281.686981,238.778244 281.676788,241.175964 283.600220,242.556976 
	C285.988617,240.851486 285.418457,237.250015 288.568573,235.968033 
	C287.659729,240.624420 286.248657,245.073730 283.488770,249.862503 
	C280.257263,246.087463 279.388885,241.803558 277.414337,237.722733 
z"/>
<path fill="#000000" opacity="1.000000" stroke="none" 
	d="
M357.701172,246.778687 
	C357.642731,244.493637 357.618317,242.675201 357.633423,240.857101 
	C357.685272,234.606812 359.457153,233.542236 365.631104,236.112411 
	C364.944458,238.681610 361.232086,236.246048 360.743835,239.043488 
	C360.838379,241.312851 363.797943,240.123367 364.275330,241.986526 
	C364.361053,244.482681 360.087677,242.888962 360.647278,245.704193 
	C361.186096,248.414780 364.378357,246.350998 365.770325,248.596741 
	C362.746521,249.176697 359.911774,250.969971 357.701172,246.778687 
z"/>
<path fill="#000000" opacity="1.000000" stroke="none" 
	d="
M373.149414,210.961731 
	C375.300568,211.007767 377.243958,210.411072 378.505920,212.318954 
	C377.512451,214.131699 374.840668,212.944458 373.954681,215.021240 
	C373.509155,217.048035 376.423920,216.371765 376.585999,218.466141 
	C373.327148,219.157364 373.831848,222.777054 372.229095,225.078583 
	C368.615540,221.408600 369.009766,213.769318 373.149414,210.961731 
z"/>
<path fill="#000000" opacity="1.000000" stroke="none" 
	d="
M386.413483,221.948029 
	C386.526459,218.093155 387.893646,214.182037 382.276215,212.501556 
	C386.444153,210.168549 389.753815,210.399994 393.790283,212.075897 
	C391.800354,213.879593 388.811188,214.421860 389.609741,217.710892 
	C390.187531,220.090591 390.348114,222.662735 388.680328,224.830276 
	C386.516479,225.167908 386.639343,223.595917 386.413483,221.948029 
z"/>
<path fill="#000000" opacity="1.000000" stroke="none" 
	d="
M309.665955,243.039124 
	C309.901794,240.338089 309.000671,237.941620 310.621674,235.674561 
	C314.417969,236.409851 312.920166,239.491928 313.145966,241.576721 
	C313.481079,244.670624 312.882141,248.146255 319.129730,247.796631 
	C311.257751,250.652847 309.872131,249.793350 309.665955,243.039124 
z"/>
</svg>